# xmcd
#
# Track frame offsets:
# 150
# 16585
# 37558
# 54894
# 71050
# 87813
# 101268
# 115419
# 131187
# 148852
# 165210
# 188931
# 206733
# 225220
# 240568
# 259626
# 272205
# 284877
#
# Disc length: 3979 seconds
#
# Revision: 1
# Processed by: cddbd v1.4PL0 Copyright (c) Steve Scherf et al.
# Submitted via: CedeCatalogueitor 2.5 http://usuarios.lycos.es/kakasboy
#
DISCID=f20f8912
DTITLE=Ocarina - Grandes Exitos Ocarina
DYEAR=1998
DGENRE=
TTITLE0=Song Of Ocarina
TTITLE1=Moonlight Reggae
TTITLE2=Implora
TTITLE3=Ocarina Burning
TTITLE4=Girl From Key Biscane
TTITLE5=Hotel La Luna
TTITLE6=Montego Bay
TTITLE7=Ocarina II
TTITLE8=Camilleva
TTITLE9=Les Oiseaux
TTITLE10=Cantica
TTITLE11=Mystical Force
TTITLE12=Zamba
TTITLE13=Song Of Baby Jane
TTITLE14=Ocarina Blue
TTITLE15=Dolanne Melody
TTITLE16=El Condor Pasa
TTITLE17=Amapola
EXTD=
EXTT0=
EXTT1=
EXTT2=
EXTT3=
EXTT4=
EXTT5=
EXTT6=
EXTT7=
EXTT8=
EXTT9=
EXTT10=
EXTT11=
EXTT12=
EXTT13=
EXTT14=
EXTT15=
EXTT16=
EXTT17=
PLAYORDER=
